<svg width="181" height="34" viewBox="0 0 181 34" fill="none" xmlns="http://www.w3.org/2000/svg">
<path d="M53.472 14.824H70.88V20.424H53.472V14.824ZM71.488 5.00001V10.6H53.696L56.864 7.43201V29H50.24V5.00001H71.488Z" fill="url(#paint0_linear_1_51)"/>
<path d="M90.554 29L89.722 22.408L90.586 19.88L89.722 17.352L90.554 10.728H97.338L96.186 19.848L97.338 29H90.554ZM92.09 19.88C91.7913 21.8 91.194 23.4853 90.298 24.936C89.4233 26.3867 88.3033 27.5173 86.938 28.328C85.594 29.1173 84.058 29.512 82.33 29.512C80.538 29.512 78.9593 29.1173 77.594 28.328C76.25 27.5173 75.194 26.3867 74.426 24.936C73.658 23.464 73.274 21.7787 73.274 19.88C73.274 17.9387 73.658 16.2427 74.426 14.792C75.194 13.3413 76.25 12.2107 77.594 11.4C78.9593 10.5893 80.538 10.184 82.33 10.184C84.058 10.184 85.594 10.5893 86.938 11.4C88.3033 12.1893 89.434 13.3093 90.33 14.76C91.226 16.1893 91.8127 17.896 92.09 19.88ZM79.898 19.88C79.898 20.776 80.0793 21.576 80.442 22.28C80.826 22.984 81.3487 23.5387 82.01 23.944C82.6713 24.328 83.4287 24.52 84.282 24.52C85.178 24.52 86.0207 24.328 86.81 23.944C87.5993 23.5387 88.2927 22.984 88.89 22.28C89.4873 21.576 89.9353 20.776 90.234 19.88C89.9353 18.9627 89.4873 18.152 88.89 17.448C88.2927 16.744 87.5993 16.1893 86.81 15.784C86.0207 15.3787 85.178 15.176 84.282 15.176C83.4287 15.176 82.6713 15.3787 82.01 15.784C81.3487 16.1893 80.826 16.744 80.442 17.448C80.0793 18.152 79.898 18.9627 79.898 19.88Z" fill="url(#paint1_linear_1_51)"/>
<path d="M99.6155 10.728H106.176L107.36 18.024V29H100.832V17.032L99.6155 10.728ZM114.08 10.184C115.829 10.184 117.322 10.536 118.56 11.24C119.797 11.944 120.736 12.936 121.376 14.216C122.037 15.496 122.368 17.0107 122.368 18.76V29H115.84V19.72C115.84 18.3547 115.488 17.3093 114.784 16.584C114.101 15.8587 113.109 15.496 111.808 15.496C110.912 15.496 110.122 15.688 109.44 16.072C108.778 16.456 108.266 17 107.904 17.704C107.541 18.408 107.36 19.24 107.36 20.2L105.344 19.144C105.6 17.2027 106.144 15.5707 106.976 14.248C107.808 12.904 108.832 11.8907 110.048 11.208C111.264 10.5253 112.608 10.184 114.08 10.184Z" fill="url(#paint2_linear_1_51)"/>
<path d="M125.928 29V5.00001H132.52V23.72L130.76 22.344L144.36 5.00001H151.368L131.912 29H125.928ZM137.384 17.544L142.248 13.512L151.688 29H144.168L137.384 17.544Z" fill="url(#paint3_linear_1_51)"/>
<path d="M153.323 10.44L156.619 11.08L159.883 10.44V29H153.323V10.44ZM156.587 8.93601C155.457 8.93601 154.539 8.65867 153.835 8.10401C153.131 7.52801 152.779 6.74934 152.779 5.76801C152.779 4.80801 153.131 4.04001 153.835 3.46401C154.539 2.88801 155.457 2.60001 156.587 2.60001C157.761 2.60001 158.689 2.88801 159.371 3.46401C160.075 4.04001 160.427 4.80801 160.427 5.76801C160.427 6.74934 160.075 7.52801 159.371 8.10401C158.689 8.65867 157.761 8.93601 156.587 8.93601Z" fill="url(#paint4_linear_1_51)"/>
<path d="M161.88 15.56V12.712L165.592 11.208L168.408 5.80001H172.12V10.728H179.799V15.56H172.12V20.936C172.12 22.2587 172.386 23.1867 172.92 23.72C173.453 24.2533 174.424 24.52 175.832 24.52C176.728 24.52 177.517 24.4453 178.2 24.296C178.904 24.1253 179.544 23.912 180.12 23.656V28.584C179.48 28.8187 178.637 29.032 177.592 29.224C176.546 29.416 175.469 29.512 174.36 29.512C172.333 29.512 170.669 29.2027 169.368 28.584C168.088 27.9653 167.138 27.08 166.52 25.928C165.901 24.7547 165.592 23.3893 165.592 21.832V15.56H161.88Z" fill="url(#paint5_linear_1_51)"/>
<rect width="34" height="34" rx="10" fill="white"/>
<path d="M7.5992 16.2664H15.868V18.9264H7.5992V16.2664ZM16.1568 11.6V14.26H7.7056L9.2104 12.7552V23H6.064V11.6H16.1568Z" fill="url(#paint6_linear_1_51)"/>
<path d="M17.7906 23V11.6H20.9218V20.492L20.0858 19.8384L26.5458 11.6H29.8746L20.633 23H17.7906ZM23.2322 17.5584L25.5426 15.6432L30.0266 23H26.4546L23.2322 17.5584Z" fill="url(#paint7_linear_1_51)"/>
<defs>
<linearGradient id="paint0_linear_1_51" x1="50.24" y1="16.056" x2="180.12" y2="16.056" gradientUnits="userSpaceOnUse">
<stop stop-color="#8B5CF6"/>
<stop offset="0.5" stop-color="#EC4899"/>
<stop offset="1" stop-color="#F97316"/>
</linearGradient>
<linearGradient id="paint1_linear_1_51" x1="50.24" y1="16.056" x2="180.12" y2="16.056" gradientUnits="userSpaceOnUse">
<stop stop-color="#8B5CF6"/>
<stop offset="0.5" stop-color="#EC4899"/>
<stop offset="1" stop-color="#F97316"/>
</linearGradient>
<linearGradient id="paint2_linear_1_51" x1="50.24" y1="16.056" x2="180.12" y2="16.056" gradientUnits="userSpaceOnUse">
<stop stop-color="#8B5CF6"/>
<stop offset="0.5" stop-color="#EC4899"/>
<stop offset="1" stop-color="#F97316"/>
</linearGradient>
<linearGradient id="paint3_linear_1_51" x1="50.24" y1="16.056" x2="180.12" y2="16.056" gradientUnits="userSpaceOnUse">
<stop stop-color="#8B5CF6"/>
<stop offset="0.5" stop-color="#EC4899"/>
<stop offset="1" stop-color="#F97316"/>
</linearGradient>
<linearGradient id="paint4_linear_1_51" x1="50.24" y1="16.056" x2="180.12" y2="16.056" gradientUnits="userSpaceOnUse">
<stop stop-color="#8B5CF6"/>
<stop offset="0.5" stop-color="#EC4899"/>
<stop offset="1" stop-color="#F97316"/>
</linearGradient>
<linearGradient id="paint5_linear_1_51" x1="50.24" y1="16.056" x2="180.12" y2="16.056" gradientUnits="userSpaceOnUse">
<stop stop-color="#8B5CF6"/>
<stop offset="0.5" stop-color="#EC4899"/>
<stop offset="1" stop-color="#F97316"/>
</linearGradient>
<linearGradient id="paint6_linear_1_51" x1="6.064" y1="17.3" x2="30.0266" y2="17.3" gradientUnits="userSpaceOnUse">
<stop stop-color="#8B5CF6"/>
<stop offset="0.5" stop-color="#EC4899"/>
<stop offset="1" stop-color="#F97316"/>
</linearGradient>
<linearGradient id="paint7_linear_1_51" x1="6.064" y1="17.3" x2="30.0266" y2="17.3" gradientUnits="userSpaceOnUse">
<stop stop-color="#8B5CF6"/>
<stop offset="0.5" stop-color="#EC4899"/>
<stop offset="1" stop-color="#F97316"/>
</linearGradient>
</defs>
</svg>
